# xmcd
#
# Track frame offsets: 
#        150
#        15962
#        30130
#        49014
#        64631
#        77956
#        91713
#        106718
#        124899
#        137402
#        152883
#        167887
#        183595
#        198913
#        219247
#        235791
#        252411
#        273025
#        289903
#        308404
#
# Disc length: 4304 seconds
#
# Revision: 0
# Processed by: cddbd v1.5.1PL0 Copyright (c) Steve Scherf et al.
# Submitted via: ExactAudioCopy v0.95a5
#
DISCID=f910ce14
DTITLE=Various Artist - Caribe 2004 [CD1)
DYEAR=2004
DGENRE=Latin
TTITLE0=Aventura - Obsesion
TTITLE1=Gusanito - Vive La Vida
TTITLE2=David Bisbal - Buleria
TTITLE3=Bea Bronchal - Que Te Den Candela
TTITLE4=Ramon - Para Llenarme De Ti
TTITLE5=Iman - Ben A Bailar
TTITLE6=Soul Control - Chocolate
TTITLE7=King Africa - Golosa
TTITLE8=Los Rabanes - Meneo Le Voy A Dar
TTITLE9=Bustamante - Ni Una Lgrima Mas
TTITLE10=Javier Estrada - Me Torturas
TTITLE11=Reina Saba - Hey Arriba
TTITLE12=Jorge La Suerte and Bonco - Soy Tu Bombon
TTITLE13=Rakel Winchester - El Mario De La Carnisera
TTITLE14=Davinia - Como Quieres Que Te Quiera
TTITLE15=Sara Martins - Nada Es Imposible
TTITLE16=Tnt - Sigue El Ritmo
TTITLE17=Dos Y Tres - Lo Se
TTITLE18=Proyecto Uno - Holla
TTITLE19=Chamaco - Chupa Chupa
EXTD=
EXTT0=
EXTT1=
EXTT2=
EXTT3=
EXTT4=
EXTT5=
EXTT6=
EXTT7=
EXTT8=
EXTT9=
EXTT10=
EXTT11=
EXTT12=
EXTT13=
EXTT14=
EXTT15=
EXTT16=
EXTT17=
EXTT18=
EXTT19=
PLAYORDER=
